<svg id="bear" width="256" height="256" viewBox="0 0 256 256">
  <g id="left_ear" data-name="left ear">
    <circle id="left_ear-2" cx="43.9" cy="49.2" r="34.6" fill="#673200" data-name="left ear"/>
    <circle id="left_inner_ear" cx="46.4" cy="58" r="14.8" fill="#ffaaca" data-name="left inner ear"/>
  </g>
  <g id="right_ear" data-name="right ear">
    <circle id="right_ear-2" cx="212.1" cy="49.2" r="34.6" fill="#673200" data-name="right ear"/>
    <circle id="right_inner_ear" cx="209.6" cy="58" r="14.8" fill="#ffaaca" data-name="right inner ear"/>
  </g>
  <g id="face">
    <circle id="head" cx="128" cy="133.2" r="108.1" fill="#673200"/>
    <circle id="mouth_patch" cx="128" cy="172.7" r="42.3" fill="#c65b00" data-name="mouth patch"/>
    <path id="rght_eye_patch" fill="#c65b00" d="M174 35.4a65.6 65.6 0 0 0 61 113.3 108.2 108.2 0 0 0-61-113.3z" data-name="rght eye patch"/>
    <path id="left_eye_patch" fill="#c65b00" d="M19.9 133.2a109 109 0 0 0 1.1 15.4A65.6 65.6 0 0 0 82 35.4a108.1 108.1 0 0 0-62.1 97.8z" data-name="left eye patch"/>
    <path id="mouth" fill="none" stroke="#000" stroke-linecap="round" stroke-linejoin="round" stroke-width="3" d="M101.2 187.1a37.2 37.2 0 0 0 52.7 0"/>
    <circle id="nose" cx="128" cy="138.1" r="13" fill="#ffaaca"/>
  </g>
  <circle id="left_eye" cx="84.8" cy="106.5" r="9.3" data-name="left eye"/>
  <circle id="right_eye" cx="171.2" cy="106.5" r="9.3" data-name="right eye"/>
</svg>
